<?xml version="1.0" encoding="UTF-8"?>
<svg width="30px" height="29px" viewBox="0 0 30 29" version="1.1" xmlns="http://www.w3.org/2000/svg" xmlns:xlink="http://www.w3.org/1999/xlink">
    <!-- Generator: Sketch 52.5 (67469) - http://www.bohemiancoding.com/sketch -->
    <title>icon</title>
    <desc>Created with Sketch.</desc>
    <g id="Cards-UI" stroke="none" stroke-width="1" fill="red" fill-rule="evenodd">
        <g id="ui-cards-alejandro-cuffia" transform="translate(-750.000000, -860.000000)" fill="#FFFFFF">
            <g id="card12" transform="translate(470.000000, 830.000000)">
                <path d="M281.22175,42.333 L294.5785,58.2945 C294.80875,58.56975 295.18525,58.566 295.4125,58.2945 L308.7685,42.333 L308.236,43.0155 C309.022,42.03225 309.58525,40.84725 309.8425,39.5445 C309.94525,39.02325 310,38.48325 310,37.9305 C310,33.55425 306.61075,30.006 302.4295,30.006 C298.98025,30.006 296.07025,32.421 295.1575,35.72325 L294.8425,35.71725 C293.929,32.41425 291.019,30 287.56975,30 C283.38925,30 280,33.5475 280,37.9245 C280,38.47725 280.054,39.0165 280.15675,39.53775 C280.414,40.8405 280.97725,42.02625 281.764,43.0095" id="icon"></path>
            </g>
        </g>
    </g>
</svg>